<svg t="1653447914119" class="icon" viewBox="0 0 1024 1024" version="1.1" xmlns="http://www.w3.org/2000/svg" p-id="4397" width="32" height="32"><path d="M560.049602 847.875054c-53.649194 0-91.333422-41.409253-112.003893-123.074489-13.91158-54.975254-20.931664-124.47288-28.36564-198.049146-7.482196-74.094636-15.221567-150.716823-30.165867-205.840757-12.340399-45.516022-25.130856-59.303033-30.43108-61.613593-5.959236 5.010901-33.163568 34.01948-55.216356 157.982027-13.381156 75.227815-18.002276 147.361488-18.584939 157.097987-0.699196 63.204866-42.715222 155.703614-156.776518 155.703614H61.900906c-27.738775 0-50.229565-22.49079-50.229564-50.229565s22.49079-50.229565 50.229564-50.229565h66.600385c31.270918 0 41.947714-12.983338 48.268603-25.68539 7.458086-14.992521 8.060841-31.017761 8.06084-31.16644 0-0.900114 0.02411-1.800228 0.072331-2.700342 0.208955-3.857631 5.292187-95.584853 23.519491-188.963623 11.126853-57.008547 25.014323-103.167508 41.276647-137.191005 18.633159-38.978142 52.479849-85.450536 107.901142-85.450536 61.018875 0 104.381054 45.809363 128.87299 136.158286 17.106181 63.09637 25.26748 143.893639 33.15955 222.034768 5.995401 59.387419 11.661296 115.483797 20.710654 160.794883 9.105616 45.59639 18.564847 62.943672 22.896645 68.902908 7.10447-4.420202 16.965538-22.727873 24.893772-57.213484 6.216411-27.035561 33.171605-43.92475 60.203147-37.696283 27.039579 6.216411 43.916713 33.171605 37.696284 60.203147C665.254421 802.045599 622.864686 847.875054 560.049602 847.875054z" fill="#ffffff" p-id="4398"></path><path d="M964.964188 694.397614h-125.200204c-48.690531 0-86.607825-26.026951-106.763945-73.282926-13.123981-30.772641-17.640623-67.359856-21.345556-100.205972a1391.98581 1391.98581 0 0 0-4.524679 38.130267c-2.957517 27.582059-27.698591 47.553334-55.296723 44.591798-27.582059-2.953498-47.549315-27.710646-44.591799-55.296723 5.075195-47.352415 9.977601-82.472927 18.737637-111.196201 8.964973-29.426488 32.058517-78.788086 85.920685-78.788087 54.581454 0 76.730683 45.013727 83.71862 64.366174 8.84844 24.503991 12.01893 52.74908 15.378283 82.657772 3.190582 28.38975 6.485641 57.751944 14.409858 76.328846 5.219856 12.235922 8.084951 12.235922 14.357619 12.235922h125.200204c27.738775 0 50.229565 22.49079 50.229565 50.229565s-22.49079 50.229565-50.229565 50.229565z" fill="#ffffff" p-id="4399"></path></svg>