<svg t="1653056450107" class="icon" viewBox="0 0 1024 1024" version="1.1" xmlns="http://www.w3.org/2000/svg" p-id="54274" width="32" height="32"><path d="M505.90781 996.966158c-262.730237 0-476.477008-213.750802-476.477008-476.481039 0-262.726205 213.74677-476.472976 476.477008-476.472976 51.539687 0 102.2609 8.192806 150.752475 24.352633l-31.860017 95.628436c-38.202185-12.728686-78.202595-19.179715-118.888426-19.179715-207.150594 0-375.679685 168.52506-375.679685 375.675654s168.529091 375.683717 375.679685 375.683716 375.679685-168.533123 375.679685-375.683716c0-62.671743-15.724382-124.69032-45.479752-179.346661l88.528272-48.193215c37.778836 69.396941 57.748802 148.083363 57.748802 227.543907-0.004032 262.722173-213.750802 476.472976-476.481039 476.472976z" fill="#ffffff" p-id="54275"></path><path d="M944.174568 40.077015a8806.311298 8806.311298 0 0 1-81.190227 20.038508l-85.472098 20.542495c-28.836098 6.930824-58.998689 20.082859-67.006028 29.239287-8.023467 9.156429-14.571261 40.907585-14.571261 70.558126v366.491001l-53.894312-1.624853s-57.357708-1.74581-103.7527 46.842532c-56.228778 58.861604-64.695754 142.039555-18.917642 185.753338 45.778112 43.75007 128.480299 31.48102 184.71311-27.380585 30.255324-31.670519 35.589519-53.789483 35.589518-53.789483 6.967111-28.824002 12.692399-52.414608 12.740782-52.414608 0.044351 0 0.076606-24.2599 0.076606-53.918504V306.512562c0-29.65054 23.497872-59.970375 52.217045-67.368898l139.471239-35.924166V40.077015h-0.004032z m-220.484063 525.339518l-0.693486-0.665262-1.42729-1.366812c-1.636949-1.419226-1.536151-1.685331 0.225786-0.604784 1.765969 1.080547 3.209387 2.4272 3.209387 2.999728 0 0.556401-0.588656 0.399157-1.314397-0.36287z" fill="#ffffff" p-id="54276"></path><path d="M399.115063 648.275964a172.492442 172.492442 0 0 1-58.668074-129.56891c0-95.063971 77.33977-172.403741 172.40374-172.403741 54.237023 0 104.2204 24.751791 137.132742 67.909172l-80.149999 61.123497c-13.684245-17.945955-34.452525-28.235346-56.982743-28.235346-39.484327 0-71.606418 32.122091-71.606418 71.606418a71.687056 71.687056 0 0 0 24.388921 53.837866l-66.518169 75.731044z" fill="#ffffff" p-id="54277"></path></svg>