<svg t="1653055442792" class="icon" viewBox="0 0 1024 1024" version="1.1" xmlns="http://www.w3.org/2000/svg" p-id="19217" width="16" height="16"><path d="M64 96h800v64H64zM656 352h-64v256h176v-64H656z" p-id="19218" fill="#ffffff"></path><path d="M624 224c-194.4 0-352 157.6-352 352s157.6 352 352 352 352-157.6 352-352-157.6-352-352-352z m203.7 555.7c-26.5 26.5-57.3 47.2-91.6 61.7-35.5 15-73.2 22.6-112.1 22.6s-76.6-7.6-112.1-22.6c-34.3-14.5-65.1-35.3-91.6-61.7-26.5-26.5-47.2-57.3-61.7-91.6-15-35.5-22.6-73.2-22.6-112.1s7.6-76.6 22.6-112.1c14.5-34.3 35.3-65.1 61.7-91.6 26.5-26.5 57.3-47.2 91.6-61.7 35.5-15 73.2-22.6 112.1-22.6s76.6 7.6 112.1 22.6c34.3 14.5 65.1 35.3 91.6 61.7 26.5 26.5 47.2 57.3 61.7 91.6 15 35.5 22.6 73.2 22.6 112.1s-7.6 76.6-22.6 112.1c-14.5 34.3-35.3 65.1-61.7 91.6zM64 768v64h240c-15-20-28.2-41.4-39.3-64H64zM330.7 320H64v64h218.3c14-23 30.2-44.4 48.4-64zM224 592c0-16.2 1-32.3 2.9-48H64v64h160.3c-0.2-5.3-0.3-10.6-0.3-16z" p-id="19219" fill="#ffffff"></path></svg>